<svg width="381" height="60" viewBox="0 0 381 60" xmlns="http://www.w3.org/2000/svg"><title>logo-white</title><g fill="none" fill-rule="evenodd"><path d="M11.791 41.099c-.547-1.547-.791-3.51-.791-6.128 0-2.618.244-4.582.791-6.129C13.251 24.44 17.084 22 22.133 22c3.772 0 6.693 1.488 8.7 3.867a.483.483 0 0 1-.06.714l-3.286 2.857c-.244.178-.548.178-.73-.12-1.278-1.368-2.556-2.141-4.624-2.141-2.25 0-3.954 1.07-4.684 3.212-.365 1.25-.487 2.678-.487 4.582 0 1.903.122 3.391.548 4.64.73 2.083 2.433 3.213 4.684 3.213 2.068 0 3.407-.773 4.624-2.142.182-.238.486-.238.73-.059l3.285 2.855c.243.179.182.477.06.714C28.887 46.512 25.967 48 22.195 48c-5.05-.059-8.943-2.44-10.403-6.901m111.002 0c-.549-1.547-.793-3.51-.793-6.128 0-2.618.244-4.582.793-6.129C124.256 24.44 128.095 22 133.154 22c3.779 0 6.765 1.488 8.716 3.867a.482.482 0 0 1-.06.714l-3.292 2.857c-.245.178-.549.178-.732-.12-1.28-1.368-2.56-2.141-4.632-2.141-2.255 0-3.962 1.07-4.693 3.212-.426 1.25-.549 2.678-.549 4.582 0 1.903.123 3.391.549 4.64.731 2.083 2.438 3.213 4.693 3.213 2.072 0 3.413-.773 4.632-2.142.183-.238.487-.238.732-.059l3.291 2.855c.243.179.183.477.06.714-2.01 2.32-4.936 3.808-8.715 3.808-5.059-.059-8.898-2.44-10.361-6.901m130.072 6.84c-.298 0-.537-.183-.537-.548V32.778c0-3.289-1.612-5.541-4.656-5.541-2.985 0-4.717 2.252-4.717 5.54v14.614c0 .304-.179.548-.537.548h-4.716c-.3 0-.538-.183-.538-.548V32.778c0-3.289-1.612-5.541-4.657-5.541-2.985 0-4.716 2.252-4.716 5.54v14.614c0 .304-.18.548-.537.548h-4.717c-.298 0-.537-.183-.537-.548V23.096c0-.304.18-.548.537-.548h4.717c.299 0 .537.183.537.548v1.827h.06c1.075-1.583 3.223-2.923 6.507-2.923 2.926 0 5.254 1.218 6.746 3.349h.06c1.91-2.131 4.358-3.349 7.88-3.349 5.732 0 8.956 4.02 8.956 9.438v16.014c0 .304-.18.548-.537.548l-4.598-.061zm11.87 8.002c-.299 0-.538-.178-.538-.534v-4.086c0-.297.18-.533.538-.533h.896c1.971 0 2.927-.889 3.703-2.903l.717-2.073-9.02-23.279c-.119-.296.12-.533.419-.533h5.077c.298 0 .538.178.597.533l5.555 16.111h.12l5.316-16.11c.12-.297.299-.534.597-.534h4.839c.298 0 .537.178.417.533L274.65 48.3c-2.15 5.863-4.181 7.7-8.302 7.7l-1.613-.06zM49.705 39.59c.42-1.311.54-2.504.54-4.591 0-2.088-.12-3.22-.54-4.592-.719-2.087-2.337-3.22-4.615-3.22s-3.956 1.192-4.675 3.22c-.42 1.312-.54 2.445-.54 4.592 0 2.087.12 3.28.54 4.592.719 2.087 2.338 3.22 4.675 3.22 2.278.06 3.896-1.133 4.616-3.22m-14.866 1.55C34.3 39.412 34 37.743 34 35c0-2.743.24-4.354.84-6.143C36.218 24.504 39.995 22 45.03 22c4.975 0 8.752 2.504 10.13 6.857.54 1.73.84 3.4.84 6.143s-.24 4.353-.84 6.142C53.783 45.495 50.006 48 45.03 48c-4.975 0-8.752-2.505-10.19-6.858M155.439 22c-4.127 0-6.859.957-8.861 2.45-.182.18-.243.42-.122.658l1.943 3.407c.181.239.485.299.728.12 1.214-.957 2.913-1.734 5.705-1.734 4.067 0 5.463 1.195 5.584 3.885v8.308c0 2.869-2.003 4.244-5.584 4.244-2.792 0-4.309-1.016-4.309-3.108 0-2.332 1.638-3.347 5.401-3.347h1.154c.303 0 .546-.18.546-.538v-3.288c0-.298-.182-.538-.546-.538h-2.064c-6.19 0-10.014 2.511-10.014 7.89 0 5.2 3.823 7.591 8.436 7.591 3.52 0 5.887-1.195 7.04-2.87h.061v1.794c0 .299.182.538.546.538h4.37c.304 0 .547-.18.547-.538V30.726C165.878 24.63 163.086 22 155.439 22M94.752 32.496c-.12 0-.24.06-.24.238v3.876c0 .12.06.239.24.239H107.46c.36 0 .54-.18.54-.537 0-3.995-.24-5.725-.84-7.454C105.782 24.624 102.065 22 96.97 22c-4.916 0-8.752 2.505-10.13 6.858C86.3 30.468 86 32.436 86 35c0 2.564.36 4.473.9 6.083C88.277 45.436 91.994 48 97.21 48c4.555 0 8.032-1.73 10.19-4.233.18-.24.18-.537-.06-.716l-2.997-2.684c-.24-.179-.54-.179-.78.12-1.258 1.371-2.996 2.385-5.814 2.385-2.757 0-4.735-1.312-5.515-3.757-.12-.358-.24-.716-.3-1.074-.18-1.073-.3-2.087-.3-3.577.06-1.432.12-2.326.3-3.459v-.12c.06-.298.12-.536.18-.775.66-2.028 2.518-3.22 4.856-3.22s4.136 1.192 4.795 3.22c.18.596.3 1.252.3 2.088 0 .178-.12.298-.3.298h-7.014zM81.397 12h-4.762c-.3 0-.542.177-.542.531V35.727c-.06 1.416-.241 2.36-.482 3.187-.664 2.066-2.29 3.128-4.641 3.128-2.29 0-3.918-1.121-4.581-3.128-.362-1.122-.542-2.361-.542-4.604s.18-3.482.542-4.603c.663-2.007 2.23-3.128 4.46-3.188h2.05c.12 0 .18-.118.18-.235V21.62c0-.118-.06-.177-.18-.235h-3.557c-4.158.058-7.172 2.006-8.438 5.902-.603 1.888-.904 3.6-.904 6.905 0 3.306.241 5.017.904 6.906C62.17 45.052 65.304 47 69.523 47c3.375 0 5.424-1.24 6.57-2.892h.06v1.83c0 .294.181.53.543.53h4.761c.302 0 .543-.176.543-.53V12.295c-.06-.118-.302-.295-.603-.295m123.355 20.496c-.12 0-.24.06-.24.238v3.876c0 .12.06.239.24.239H217.46c.36 0 .54-.18.54-.537 0-3.995-.24-5.725-.84-7.454-1.378-4.234-5.095-6.858-10.19-6.858-4.916 0-8.752 2.505-10.13 6.858-.54 1.61-.84 3.578-.84 6.142 0 2.564.36 4.473.9 6.083 1.378 4.353 5.095 6.917 10.31 6.917 4.555 0 8.032-1.73 10.19-4.233.18-.24.18-.537-.06-.716l-2.997-2.684c-.24-.179-.54-.179-.78.12-1.258 1.371-2.996 2.385-5.814 2.385-2.757 0-4.735-1.312-5.515-3.757-.12-.358-.24-.716-.3-1.074-.18-1.073-.3-2.087-.3-3.577.06-1.432.12-2.326.3-3.459v-.12c.06-.298.12-.536.18-.775.66-2.028 2.518-3.22 4.856-3.22s4.136 1.192 4.795 3.22c.18.596.3 1.252.3 2.088 0 .178-.12.298-.3.298h-7.014zM191.339 12h-4.749c-.3 0-.54.181-.54.544V36.343c-.061 1.449-.241 2.415-.481 3.26-.662 2.115-2.284 3.263-4.629 3.263-2.344 0-3.907-1.148-4.568-3.262-.361-1.147-.541-2.416-.541-4.711 0-2.296.18-3.564.54-4.712.662-2.054 2.225-3.202 4.449-3.261h2.043c.3 0 .541-.182.541-.544v-4.168c0-.302-.18-.544-.54-.544h-3.487c-4.148.06-7.213 2.054-8.475 6.04-.602 1.933-.902 3.686-.902 7.128 0 3.383.24 5.195.902 7.128 1.262 4.047 4.388 6.04 8.595 6.04 3.366 0 5.41-1.269 6.613-2.96h.06v1.873c0 .301.18.543.54.543h4.749c.301 0 .541-.18.541-.543v-34.43c-.12-.302-.36-.483-.661-.483M123 59c0 .752.175 1 1 1h16c.767 0 1-.186 1-1v-4c0-.752-.175-1-1-1h-16c-.855 0-1 .186-1 1v4z" fill="#FFF"/><path d="M6.99 54H6c.119-.06 0-.238 0 0V6c0 .238.119.06 0 0H113c-.12.06 0 .238 0 0v47c0 .703-.12.881 0 1H6.99zM119 0c-.12.18-.12.12 0 0-.12.12-.12.12 0 0-.24.06-.36 0-1 0H0c.12.12 0 .3 0 1v59c0-.3.06-.18 0 0h118c.64 0 .76-.06 1 0-.06-.24 0-.36 0-1V0z" fill="#FFF"/><g transform="translate(286 16)" fill="#6DF0C2"><path d="M22 6.324h11.664c2.76 0 4.908.696 6.444 2.088 1.536 1.392 2.304 3.336 2.304 5.832s-.768 4.44-2.304 5.832c-1.536 1.392-3.684 2.088-6.444 2.088h-6.048v9.54H22V6.324zm10.944 11.592c2.808 0 4.212-1.212 4.212-3.636 0-1.248-.348-2.172-1.044-2.772-.696-.6-1.752-.9-3.168-.9h-5.328v7.308h5.328zM68.08 31.704h-6.12l-4.392-8.1c-.36-.624-.792-1.074-1.296-1.35s-1.14-.414-1.908-.414h-2.772v9.864h-5.544V6.324h11.664c2.976 0 5.226.654 6.75 1.962 1.524 1.308 2.286 3.198 2.286 5.67 0 1.92-.534 3.528-1.602 4.824-1.068 1.296-2.574 2.148-4.518 2.556 1.32.336 2.436 1.284 3.348 2.844l4.104 7.524zM56.884 17.592c1.608 0 2.772-.282 3.492-.846.72-.564 1.08-1.446 1.08-2.646 0-1.224-.36-2.112-1.08-2.664-.72-.552-1.884-.828-3.492-.828H51.52v6.984h5.364zm26.064 14.436c-2.52 0-4.71-.534-6.57-1.602-1.86-1.068-3.294-2.58-4.302-4.536-1.008-1.956-1.512-4.254-1.512-6.894 0-2.64.504-4.938 1.512-6.894 1.008-1.956 2.442-3.462 4.302-4.518C78.238 6.528 80.428 6 82.948 6c2.52 0 4.71.528 6.57 1.584 1.86 1.056 3.294 2.562 4.302 4.518 1.008 1.956 1.512 4.254 1.512 6.894 0 2.64-.504 4.938-1.512 6.894-1.008 1.956-2.442 3.468-4.302 4.536-1.86 1.068-4.05 1.602-6.57 1.602zm0-4.356c2.112 0 3.774-.744 4.986-2.232 1.212-1.488 1.818-3.636 1.818-6.444s-.6-4.95-1.8-6.426c-1.2-1.476-2.868-2.214-5.004-2.214-2.136 0-3.798.738-4.986 2.214-1.188 1.476-1.782 3.618-1.782 6.426 0 2.808.6 4.956 1.8 6.444 1.2 1.488 2.856 2.232 4.968 2.232z"/><path fill-rule="nonzero" d="M14.7248925 0L16.5889019 0 1.86400934 37.1391168 0 37.1391168z"/></g></g></svg>